<?xml version="1.0" encoding="UTF-8"?><svg id="Layer_6" xmlns="http://www.w3.org/2000/svg" viewBox="0 0 180.500000157089744 100.500000030970114"><defs><style>.cls-1{fill:none;stroke:#000;stroke-linejoin:round;stroke-width:.5px;}</style></defs><g id="SPLINE"><path class="cls-1" d="M5.250000078545781,100.250000015485057c-.030186060574124.000000211441147-.056799662832418-.000001632512067-.079843975503536-.000012362208508-.057610781675976-.000026824242013-.110407950342051-.000104517552245-.164907461532493-.000330863720592-.010899902237725-.000045269232942-.019600596753662-.000085240992121-.031767291662618-.000149507573951-.024333389816093-.000128533163661-.048017028328104-.000287304819722-.071050504750019-.00047737073146-.046066952840192-.000380131827114-.09161601345113-.00089960639707-.137652692728807-.001619760456379-.023018339637929-.000360077028745-.043427546039311-.000718971048627-.067603332161525-.001204137408422-.048351572242609-.000970332719589-.095519255259205-.002160593054214-.14149088882732-.003577381183277-.022985816782239-.000708394065441-.045672532769458-.001473222895584-.068058253686104-.002294225843798-.022385720914826-.000821002948214-.042576099047437-.001617085068574-.0662521530503-.002630615177623-.047352108003906-.002027060218097-.093961520731682-.004344351562395-.139810258255238-.006956915387491-.022924368762688-.001306281912548-.045658577757422-.002686265735974-.068200157265892-.004139929002122s-.043672133140717-.002892977352531-.067044516257738-.004581625093124c-.046744766235861-.003377295479368-.092974780931399-.00710575836456-.13866738429715-.011190691800948-.045692603363932-.004084933436388-.08913047439637-.008341518640009-.135442322367453-.013324152534551-.046311847972902-.004982633894542-.092235240030277-.01037215656288-.137743214650982-.016175111013581-.045507974622524-.005802954450701-.089285519610712-.01182397204866-.135250746920065-.018650736472409-.045646101261809-.006779367764466-.090953840897782-.014009563963555-.136029342746042-.02172308867739-.045430571492034-.007774285844789-.090613653812397-.016037148316173-.135691679273805-.02483851762554-.022604599143961-.004413490236402-.045170223616879-.008960573111835-.067648068274138-.013633848038808-.022484823230116-.004674725812947-.044906458024343-.009480480222919-.067263696371811-.014419807475861-.044625907465161-.00985908713119-.089030051558439-.020256246956706-.133293212093122-.031238714736901-.088317488342-.021913120492172-.175507394005763-.046015760788578-.261482054524095-.072459960249034-.08601748898036-.026457372694495-.170822982592654-.055258061080167-.254329329120083-.086585536853818-.041727873513082-.015654246664781-.083203881409645-.031967866352716-.124335380573029-.048939741804134-.041160883540215-.01698400017267-.081976770987239-.034627189215826-.12235874635553-.052921024407624-.040241492579298-.018230193705676-.080509182078458-.037319595587178-.120304980842775-.05708762906761-.019928776340748-.009899354457957-.039753675060638-.019976252871857-.059313054216545-.030147104494972-.019743492797716-.010266590474203-.039236759350388-.020637696767153-.058413814062078-.031072969593879-.038056427061747-.020708560579806-.07578352586097-.042157873507676-.113134447861739-.064371936099633-.037350922002588-.022214062591956-.075408167420392-.045896723531769-.110879120513346-.068960163140218s-.070614983140331-.046913837548345-.105386192328297-.071579240428036c-.034771209189785-.024665402879691-.070269029638439-.050997269876461-.103151728993907-.076468641760584s-.065435574051662-.051778656297756-.097615636388582-.07895352259402-.065145542454047-.056284893818884-.095381477629417-.084159645144609-.060170341803314-.056659412777663-.089761205203104-.086392789053207c-.014795431699895-.014866688137772-.029504750320484-.029970715722811-.044123520794528-.045316589685171-.014618770472225-.015345873964179-.029998870249983-.031868152495008-.043579784502072-.046767602430918-.027161828504177-.029798899870002-.054185692013561-.060691909915477-.081010214173148-.092730820735596-.020118391617871-.024029183115999-.04012527388295-.048702432608479-.059994630501023-.074040251569386-.006623118872085-.008445939653029-.013887995108234-.017822487976446-.019822377977107-.025560209523974-.023737531473671-.030950886195569-.047529753037452-.063215395928637-.071291208343609-.096858484415861-.017821091478254-.025232316364054-.035625004415124-.051240077295006-.053374954080937-.078049747951809-.005916649888604-.008936556885601-.01261572772637-.019179649090802-.017730646208292-.02707791814646-.020459673929508-.031593076228091-.041244694542911-.064904213682894-.062230356377768-.100023266715652-.015739246375233-.026339289775933-.031591293263773-.053695652431998-.047502495044682-.082106081414167-.005303733927576-.009470142995269-.011309750279906-.020327860307589-.015928939303194-.028763133501343-.009238378050213-.016870546389328-.01862691111819-.034347755929048-.028142663270046-.052447635122007-.004757876075018-.00904993959557-.009547540053973-.01825557911252-.01436604484843-.02761890797774s-.010353026937082-.020249415787475-.014539067400619-.028565013881234c-.008372080925255-.016631196187518-.017032680418197-.034154546481659-.02594731004865-.052594331396904-.00668597222284-.013829838688252-.013514808739274-.028175120827655-.02047112422224-.043046315178799-.002318771827049-.004957064784321-.005220999470112-.011203676587684-.006998205777563-.015046902286485-.007108825229807-.015372902793388-.014868223504891-.032420983170596-.023214087228553-.051188601328249-.004172931860012-.009383809079736-.008492300365106-.01919759719749-.012949075355209-.029447502296534-.004456774991922-.010249905099045-.009756975925484-.022599886226089-.013772845890344-.032064515238744-.00803173992972-.01892925802531-.015818050273083-.037684720824473-.023529715010227-.056663494833629-.003855832368572-.009489387006397-.007692539174968-.019035107427044-.011529382654771-.028687301886748s-.007673826255996-.01941086656916-.011528578772413-.029327241534702c-.007709505034654-.019832749931084-.015176800276095-.0394971344449-.022415254234147-.058982432085031-.007188717321696-.019351410881427-.014151777373627-.038526468251803-.020899337108858-.057515577625963-.00684092852498-.01925186958033-.014128955514025-.040233347255707-.020889253330097-.0601680938762-.00335708183411-.009899353186483-.006619047084314-.019632834568256-.009789557270778-.029197940952145s-.005798117665108-.017569348519828-.009240656576367-.028187882813654c-.013770155637758-.042474137178942-.026413961038998-.083597388833368-.038072792056482-.123266491897084-.005829415509652-.019834551532767-.011412383577408-.039305899528699-.016765275335274-.058403099483257-.002676445879843-.009548599977279-.005295357119394-.019003665209311-.00785869676838-.028363967794576-.002563339647168-.009360302585264-.004726897535875-.017339716230708-.007525202589022-.027795407610029-.011193220216228-.041822765515462-.021601456630378-.082886646576299-.031308260216974-.123130142015725-.004853401793298-.020121747720623-.009531358522509-.040038404022198-.014043846582354-.05974351369332-.004512488061664-.019705109671122-.008505583482474-.037570893344309-.01305062863139-.058474301413298-.009090090297832-.041806816137978-.017564854164448-.08313457614895-.025480742211585-.123940789548215-.003957944023568-.020403106698723-.007776129557897-.040675829626707-.011461399531981-.060813636053354-.003685269975904-.020137806426646-.007037438552288-.038980026372883-.01066371518391-.060004168302839-.007252553263243-.042048283858094-.013990131119499-.08376630620478-.020257359059542-.125122035347886-.006267227941862-.041355729141287-.011832558351671-.080598028127497-.017433599225114-.122953249840066-.011176124025951-.084514150463292-.020569535639879-.167753892874316-.028619799064472-.251301646798311-.008087658585282-.083935850736452-.014812690340477-.168183884083192-.02041722028298-.254427278279763-.005574357899604-.085779101978915-.00989471554567-.171510773141563-.013210787001299-.257427053889842-.003336553307236-.086446946203068-.005647218575177-.172878002153084-.007219084291137-.259619596750781-.001572638670041-.08678424916252-.002400503988611-.173700591049055-.002818645731168-.261186869174708-.000415165155573-.086863497328522-.000424601423219-.174288837155473-.000423338642577-.262713688847725"/></g><g id="SPLINE-2"><path class="cls-1" d="M.250000078545781,5.250000015485057c-.000001306632839-.08812187620606.000008824266843-.175334740006292.000418655170506-.261718153189577.000414705387811-.087410848156651.001237838849192-.17397243985215.002779872222163-.259773386724191.001532970774861-.085296690846008.003785811381022-.170717081346083.007041653565466-.256238722204216s.007638196200787-.173114525216079.01301577790764-.256781009416954c.002688790855245-.041833242101347.005685990081474-.08384290448339.009022763142639-.126014275856505.003336773062983-.042171371373115.007131591752113-.085747413257195.011061082812375-.126981461658943.003929491058443-.041234048401748.008222340697102-.082742995478839.012915404089654-.124505919606236s.010004735499024-.085448836787691.015317474262702-.126027215981594.011051328789108-.081552470148381.017258843032323-.122895099759262c.003103757120698-.02067131480544.006324767569822-.041434787590333.009668550954302-.062286487282108s.007002107104199-.042913159728414.010405291057396-.062815776320349c.006806367906393-.03980523318387.014118323744697-.080182135528958.021991223871737-.121094450261808.00393645006443-.020456157364606.008013181615752-.041046175329029.012237335098689-.061764770538502.004224153484756-.020718595209473.008938322265749-.043153043548955.013122027201462-.062536130972148.008367409867788-.038766174844568.017362185355523-.0784114419057.02706238402061-.118884176858046.004850099330724-.020236367477992.009876612662993-.040679605812329.015089988834006-.06132210011674.002606688087326-.010321247153115.005260098296276-.02069230750385.007961567587699-.031112185477468.002701469293243-.010419877973618.005789951594124-.022162131383084.008249943510236-.031405062585691.009839967664448-.036971724812247.020541968928228-.075482828153326.032233428926702-.115449947134039.005845729998327-.019983559490356.011938993306103-.040330841597097.018297352991794-.061029464142848.003179179842846-.010349311272876.006424654262446-.02078645425172.009738752611156-.031309719259298.001657049173446-.005261632502879.003331256004458-.010544795217356.005022921537602-.015849267851081.001691665531325-.005304472635544.003860484564939-.012053580951033.00512768407134-.015977112354449.01013759604939-.031388251218232.021906140029387-.066684387185887.035592497233665-.105703444136452.006843178602139-.019509528476192.014166994753396-.039948776746314.022014644433511-.06128763938068.003923824840967-.010669431316273.007978691943208-.021563748798144.012170467800388-.032678614603356.00209588792859-.005557432901696.004226008444675-.011170001771461.006391125554728-.016837140066855s.004739855821754-.012356567724055.006601126484384-.01716454180314c.007445082652339-.019231896312704.015008721951745-.038346122380972.022710555664162-.057386919603232s.015541856668278-.038008182456906.02354262089284-.056944167385154c.008000764222743-.018935984928248.016140310173796-.037791291657413.02442044325835-.056562586467408.004140066543187-.009385647404997.008315277516886-.018750292649202.012525874048151-.028093415710828.004210596529447-.009343123061626.007819066930097-.017280057472817.012738177552819-.0279642832229.019676442487253-.042736902994875.038865090909894-.082327527619782.057327400601935-.118931693257764.016154520981218-.032028644931415.031752923565364-.061771027512805.046648538000227-.089330116348719.002127944919266-.003937012690585.003672288474263-.006785725443478.006340477866615-.011677621560011.021345515147914-.039135168928624.042622497219782-.076354444565368.063701141181809-.111747068734985.015808982971066-.026544468126303.031506243954937-.052061395950659.047038031998454-.076589545098614.005177262679354-.008176049715985.009537604057186-.015005578723503.015474701251151-.024199868134019.011392645395972-.017642843877184.0228124661935-.034945553868965.034250082362632-.051920362766396.011767837575462-.017464897493483.023573526608743-.034608343823493.035380338124014-.051398952817181.01259933431902-.017917665225468.025206224136127-.035443844642941.037814734376298-.05259693982407.011969258132012-.016283432383716.022857387602926-.030816818531093.035895661143513-.047841895970123.025627949378759-.033464386322521.05151107797974-.065810151900223.077594288724868-.097080542276672.013726455434153-.016456241684864.027508305436641-.032614645921058.04133749434186-.048481962478036.013369205096751-.015339540941568.025975774591643-.029519101311962.040232975045001-.045208502808237.028514400906715-.031378802992549.057414392049395-.061802881067706.086662391728169-.091307201357267s.057501620187395-.05684567199205.088751004312144-.085790571856705c.031249384126568-.028944899862836.062920281792685-.057002204124728.094974389034178-.084203253967644.016027053619837-.013600524920548.032149895729162-.02698700487781.048363413534389-.040163187251892s.031603206536602-.025430127090658.048907420585238-.0389013855347c.033756590792109-.026279365099981.067958448596983-.051747699691987.102570962384561-.076431538846009.035230589164712-.025124618268819.070895831890084-.049442061381342.106930105292122-.072964049897564.018279916197571-.011932528072066.036647162569352-.023654721015191.055113117145083-.03518227461791.018612938816659-.011619309960224.037349445279688-.023054233590301.056149565711166-.03427459303748.037793381856318-.022555990039109.074866001028568-.043721212185119.114383707501474-.065276471907055.03864671667543-.021080171138237.077632627546336-.04139364590992.116981127290273-.060998657549135.039457540367948-.01965934007967.079279721274361-.038606203836025.119495252785782-.056890387935709.080415233371241-.036561171173162.162399049464511-.070479738675203.246237472201756-.102056865291161.041862654237775-.015767261478686.08406614264095-.030902395114026.126611933654203-.045432232825988.042610259042704-.014551854224919.085563885288138-.028496531944256.128864206391881-.041857578276904.043170267670575-.013320916148587.086974012499923-.026147251948714.131065573727028-.038386551814256.044290308853306-.012294469872359.088643985220187-.023933249440233.132607217909026-.034858102158978.04384275188022-.010894913266384.088534615448225-.021384300058344.133318254005644-.031294177995733.044828257696281-.00991975141369.089749291908447-.019259643871919.133991332055302-.027920163627641.044220022320587-.00865620969671.088839200310758-.016850151694598.133827968413243-.024584133778262.044988768100666-.007733982081845.091616279001755-.015197639218968.136044460705307-.021829328177773.044428181705371-.006631688958805.089342095074244-.01285798441495.134715632741063-.018677541185752.113433844166138-.014548891929735.226421535437112-.026184572128841.341992156201741-.03558840691403.023114124152926-.001880766956674.047520373726002-.003757318607313.069720709385365-.005375386375817.044400671316907-.003236135537009.0896155936789-.006179011774293.135625107790474-.008824581620502.023004757054878-.001322784923104.046208151241444-.002571503611762.069607823612387-.003746470451006s.048890589401708-.002358080739214.070785585492558-.003304315381683c.043789992178063-.001892469283121.088814392267523-.003560698978617.135057140887511-.004999476283047.034682061464991-.001079082978322.070049369771368-.002029365738053.10609641551855-.002852572855772.012015681915727-.000274402373179.025835046129941-.000569707075556.036273492036344-.000781073415055.041753783621971-.000845465354359.085787443529625-.001553560430693.132087641184626-.002111796487952.040512672947443-.000488456547828.082760430923372-.000862287452037.126740150566548-.001129017355197.006282817092142-.00003810427188.013799851314616-.000080436737335.018954539051265-.000107889163701.020618750946596-.000109809701826.042501264701059-.000202005676329.065646072782329-.000274530164461.020327197058577-.000063695473727.041201694262782-.000111571936941.063904927201293-.000146809052239.003146960159938-.000004884317605.007376485225905-.000010937079423.009316309049609-.000013589051377.031868735428361-.000043568375986.078149270861104-.000064534322519.138842043708792-.000064116529757"/></g><g id="SPLINE-3"><path class="cls-1" d="M180.250000078544872,95.250000015485057c.000001306634658.088121876020523-.000008824266843.175334739937171-.000418655170506.261718153189577-.000414705387811.08741084832036-.00123783885283.173972440130456-.002779872222163.259773386724191-.001532970767585.085296690525865-.003785811364651.17071708086587-.007041653545457.256238721724003s-.007638196217158.173114525654455-.013015777927649.256781009898987c-.002688790857064.041833242121356-.005685990083293.083842904514313-.009022763144458.126014275887428s-.007131591690268.085747412609635-.011061082808737.12698146162802-.008222340795328.082742996397428-.012915404193336.124505920526644-.010004735333496.085448835392526-.015317474160838.126027215063004c-.005312738823704.040578379670478-.01105132889279.081552470855968-.017258843137824.122895100466849-.003103757124336.02067131480544-.006324767568003.041434787530306-.009668550934293.062286487103847s-.007002106969594.042913158920783-.010405290970084.062815775789204c-.006806368004618.039805233736843-.014118323899311.080182136358417-.021991224031808.121094451087629-.003936450066249.020456157366425-.008013181606657.041046175259908-.012237335064128.061764770331138s-.008938322091126.043153042701306-.01312202707777.062536130353692c-.008367409966013.038766175304772-.017362185513775.078411442589641-.0270623841825.118884177540167-.004850099336181.020236367476173-.009876612657536.040679605752302-.015089988803084.061322099943936-.002606688070955.010321247094907-.005260098263534.020692307374702-.007961567534949.031112185264647s-.005789951592305.02216213137217-.00824994343202.031405062289195c-.009839967358857.036971723668103-.020541968446196.075482826450752-.032233428431937.115449945436922-.00584572999287.019983559493994-.011938993335207.040330841746254-.018297353100934.061029464575768-.003179179882864.010349311416576-.006424654355214.020786454571862-.009738752767589.031309719788624-.001657049204368.005261632608381-.003331256069941.010544795435635-.005022921639465.015849268193051-.001691665573162.005304472759235-.00386048476139.012053581553118-.005127684198669.01597711274735-.01013759550915.031388249539305-.021906139179919.066684384692053-.035592496362369.10570344165717-.006843178591225.019509528481649-.014166994802508.039948776966412-.022014644626324.061287640015507-.003923824911908.010669431525457-.007978692105098.021563749263805-.012170468075055.032678615376426-.00209588798316.00555743305631-.004226008561091.011170002091603-.006391125738446.016837140565258s-.004739856041851.012356568297037-.006601126704481.017164542376122c-.00744508265052.019231896310885-.015008722220955.038346123057636-.022710556073434.05738692061459s-.015541856824711.038008182784324-.023542620481749.056944166373796-.016140309307957.037791289661982-.024420442383416.056562584479252c-.004140066535911.009385647408635-.00831527758055.018750292822006-.012525874255516.028093416214688s-.007819067763194.017280059309996-.012738178222207.027964284705376c-.019676441836054.042736901583339-.038865089885803.082327525538858-.057327399557835.118931691191392-.016154520963028.032028644944148-.031752923798194.061771028067596-.046648538787849.089330117942154-.002127944997483.003937012837923-.003672288727103.006785725910959-.006340478121274.011677622032948-.021345515178837.039135168983194-.042622497268894.076354444649041-.063701141232741.11174706881684-.015808982971066.026544468126303-.031506243947661.052061395936107-.047038031971169.076589545053139-.005177262672078.008176049705071-.009537603975332.015005578599812-.015474701227504.024199868099458-.011392645421438.017642843917201-.022812466217147.034945553908983-.034250082364451.051920362768215-.011767837600928.017464897535319-.023573526636028.034608343861692-.035380338122195.051398952815362-.012599334448169.017917665409186-.025206224359863.035443844952169-.03781473466006.052596940207877-.011969258070167.016283432296404-.022857387502881.030816818385574-.03589566086157.047841895586316-.025627949209593.033464386100604-.051511077803298.065810151687401-.077594288723049.097080542276672-.013726455235883.016456241446576-.027508305091033.032614645515423-.041337493901665.048481961972357-.01336920518952.015339541056164-.025975775293773.02951910210686-.040232975487015.045208503312097-.028514400386484.031378802412291-.057414391238126.061802880227333-.086662390902347.091307200525989-.029247999667859.029504320298656-.057501621013216.056845672826967-.088751005139784.085790572686165-.03124938412293.028944899861017-.062920281787228.057002204126547-.094974389026902.084203253967644-.016027053621656.013600524920548-.032149895730981.02698700487781-.048363413534389.040163187251892-.016213517807046.013176182374082-.031603206523869.025430127079744-.048907420587057.038901385540157-.033756590804842.026279365109076-.067958448606078.051747699701082-.10257096238638.076431538847828-.035230589175626.025124618274276-.070895831900998.049442061383161-.106930105292122.072964049893926-.018279916203028.011932528073885-.036647162574809.02365472101701-.055113117145083.03518227461791-.018612938820297.011619309962043-.037349445283326.02305423359212-.056149565712985.03427459303748-.037793381867232.022555990046385-.074866001072223.043721212208766-.114383707499655.065276471905236-.038646716671792.021080171130961-.077632627537241.041393645900826-.116981127292092.060998657543678-.039457540347939.019659340070575-.079279721248895.03860620382693-.119495252783963.056890387939347-.080415233223903.036561171105859-.162399049280793.070479738607901-.246237472201756.10205686529298-.041862654416036.015767261545989-.084066142720985.03090239514313-.126611933654203.045432232827807-.042610258919012.014551854183082-.085563885055308.028496531873316-.128864206392791.041857578280542-.043170267912501.013320916223165-.086974012632709.026147251986913-.131065573728847.038386551812437-.044290308756899.012294469845074-.088643985007366.023933249385664-.132607217907207.034858102158978-.04384275207849.010894913315497-.088534615548269.021384300080172-.133318254007463.031294177995733-.044828257592599.009919751390044-.089749291702901.019259643830082-.133991332055302.027920163627641-.044220022529771.008656209738547-.088839200627262.016850151749168-.133827968729747.024584133829194s-.091616278728907.015197639173493-.136044460388803.021829328126842-.089342095005122.012857984404036-.13471563267376.018677541174839c-.1134338441625.014548891929735-.226421534724068.026184572070633-.341992155899788.035588406894021-.023114124236599.00188076696395-.047520374169835.003757318641874-.06972070975462.005375386403102-.044400671165931.003236135524276-.089615593453345.00617901176156-.135625107563101.008824581607769-.023004757054878.001322784924923-.046208151259634.0025715036154-.069607823668775.003746470458282s-.048890589601797.002358080748309-.070785585663543.003304315388959c-.043789992116217.001892469281302-.088814392176573.003560698974979-.135057140796562.004999476281228-.034682061464991.001079082978322-.070049369787739.002029365738053-.106096415569482.002852572857591-.01201568192846.000274402373179-.025835046184511.000569707075556-.036273492074542.000781073413236-.041753783560125.000845465354359-.085787443433219.001553560430693-.1320876410864.002111796487952-.040512672949262.000488456549647-.082760430952476.000862287453856-.126740150641126.001129017357016-.006282817099418.00003810427188-.013799851345539.000080436737335-.018954539074912.000107889163701-.020618750924768.000109809701826-.042501264666498.000202005676329-.065646072747768.000274530164461-.020327196903963.000063695473727-.041201694766642.00011157193876-.063904926711984.000146809052239-.003146960221784.000004884317605-.007376485678833.000010937079423-.009316309573478.000013589051377-.031868734888121.000043568375986-.078149270320864.000064534322519-.138842043710611.000064116527938"/></g><g id="SPLINE-4"><path class="cls-1" d="M175.250000078543962.250000015485057c.030186060575943-.000000211439328.056799662834237.000001632513886.079843975505355.000012362210327.057610781677795.000026824242013.110407950436638.000104517552245.16490746157433.000330863720592.010899902230449.000045269232942.019600596911914.000085240992121.031767291617143.000149507573951.024333389417734.000128533161842.048017027729657.000287304814265.071050504149753.000477370727822.046066952840192.000380131823476.091616013411112.000899606391613.13765269268697.001619760449103.023018339637929.000360077028745.043427546668681.000718971059541.067603332805447.001204137419336.04835157227717.000970332719589.095519255308318.002160593054214.141490888876433.003577381185096.022985816784058.000708394065441.045672532767639.001473222895584.068058253673371.002294225843798s.042576099051075.001617085066755.06625215301392.002630615173985c.047352107929328.002027060214459.093961520615267.004344351558757.139810258140642.006956915383853.022924368760869.001306281910729.045658577768336.002686265734155.068200157293177.004139929002122.022541579528479.001453663267966.043672133269865.002892977361626.067044516345049.004581625098581.046744766150368.00337729547573.09297478080407.007105758353646.138667384169821.011190691790034s.089130474305421.008341518627276.135442322494782.013324152545465c.046311848193.00498263391637.092235240357695.010372156602898.1377432149784.016175111055418s.089285519039549.011823971970443.135250746592646.018650736428754c.045646101381863.006779367779018.090953840997827.014009563976288.136029342746042.021723088673752.045430571553879.007774285853884.090613653854234.016037148323448.135691679275624.024838517627359.022604599147598.004413490234583.045170223616879.008960573111835.067648068274138.013633848038808.022484823224659.004674725812947.044906458017067.009480480222919.067263696371811.014419807475861.044625907405134.009859087120276.089030051480222.020256246938516.133293212093122.031238714736901.088317488240136.021913120466706.175507394073065.046015760810405.261482054524095.072459960250853.086017489383266.026457372820005.170822983142898.055258061292989.254329329120992.086585536862913.041727873209311.015654246552003.083203881215013.03196786627268.124335380569391.048939741800496.041160883560224.016984000179946.081976771114569.034627189268576.122358746357349.052921024405805.040241492613859.018230193723866.080509182058449.037319595579902.120304980842775.057087629069429.019928776317101.009899354445224.039753675027896.019976252853667.059313054218364.030147104493153.019743492750422.010266590450556.039236759297637.020637696738049.058413814062078.03107296959206.038056427314586.02070856071623.075783526230225.042157873720498.113134448227356.064371936317912s.075408167154819.045896723378974.110879120147729.068960162920121.070614982992993.04691383745012.105386192182777.071579240327992c.034771209193423.024665402879691.070269030205964.050997270305743.103151729137608.076468641864267.032882698935282.025471371560343.065435573436844.051778655792077.097615635782859.078953522081065s.065145543361723.056284894608325.095381478233321.084159645657564c.030235934875236.02787475104742.060170341363118.056659412344743.089761204770184.08639278861483.014795431703533.014866688135953.029504750367778.029970715753734.044123520910944.045316589788854.014618770546804.015345874036939.029998870704731.03186815297704.043579784822214.046767602763794.027161828234966.029798899577145.05418569162066.060691909460729.081010213787522.092730820275392.020118391621509.024029183112361.040125273964804.048702432686696.05999463072294.074040251822225.006623118919379.008445939713056.013887995315599.017822488242018.019822378137178.025560209731339.023737531293591.03095088596092.047529752777336.063215395568477.071291208088951.096858484050244.017821091481892.025232316362235.035625004471513.051240077358671.053374954230094.078049748153717.005916649919527.008936556932895.012615727853699.019179649283615.017730646315613.027077918310169.020459673851292.031593076108038.041244694431953.064904213497357.062230356266809.100023266528297.015739246377052.026339289774114.031591293289239.053695652464739.047502495108347.08210608151785.005303733942128.009470143018916.011309750232613.02032786021482.015928939352307.028763133585016.009238378243026.016870546740392.018626911398314.034347756460193.028142663548351.052447635654971.004757876075018.009049939597389.009547540026688.018255579070683.01436604477567.027618907846772s.010353026911616.020249415747458.014539067193255.028565013479238c.008372080559639.016631195461741.017032679883414.034154545384808.025947309517505.052594330298234.006685972228297.013829838682796.013514808848413.028175121027743.02047112452783.043046315791798.002318771890714.004957064922564.005221000043093.01120367781914.006998206004937.015046902772156.007108823847375.015372899808426.014868221471261.032420978664959.02321408521675.051188596806242.004172931872745.00938380907246.0084923005561.019197597559469.012949075884535.029447503409756s.00975697740796.022599889634876.013772847371001.03206451864753c.00803173992972.01892925802531.015818049760128.037684719589379.023529714257165.056663492972802.003855832248519.009489386691712.007692538998526.019035106957745.011529382576555.028687301646642s.007673826603423.019410867422266.01152857960551.029327243635635c.007709506004176.019832752423099.015176801753114.039497138363004.022415255811211.058982436330552.007188717172539.019351410544914.014151776686049.03852646651103.020899335529975.057515573380442.006840928086604.019251868345236.014128956037894.040233348760012.020889254185022.0601680963955.003357081885042.009899353357468.006619047086133.019632834617369.009789557127078.029197940581071.003170510044583.009565105965521.00579811697753.017569346440723.009240655865142.028187880665428.013770155550446.042474136906094.026413960913487.083597388415001.038072791936429.123266491478716.005829415509652.019834551530948.011412383588322.039305899561441.016765275369835.058403099585121.002676445888937.00954860001184.005295357139403.019003665287528.00785869680476.028363967927362.00256333966172.009360302638015.004726897550427.017339716288916.007525202639954.027795407791928.011193220350833.041822766019322.021601456817734.082886647338455.031308260400692.12313014278152.004853401791479.020121747720623.009531358500681.040038403960352.014043846531422.059743513504145.004512488027103.019705109543793.008505583344231.037570892760414.013050628498604.058474300838498.00909009030147.041806816159806.017564854166267.083134576179873.025480742213404.123940789579137.003957944027206.020403106698723.007776129557897.040675829623069.011461399531981.060813636046078s.007037438568659.038980026471108.010663715180272.060004168279193c.007252553223225.042048283614349.013990131061291.083766305837344.020257359006791.125122034978631.006267227941862.041355729143106.011832558433525.080598028711393.017433599277865.122953250209321.01117612395683.084514149933966.02056953561987.167753892656037.028619799064472.251301646801949.0080876586253.083935851153001.014812690387771.168183884825339.02041722028298.254427278279763.005574357855949.085779101316803.00989471552748.171510772715919.013210787001299.257427053888023.003336553309055.086446946270371.005647218578815.172878002473226.007219084291137.259619596750781.001572638666403.086784249004268.002400503988611.173700590978115.002818645731168.261186869172889.000415165155573.086863497434024.000424601425038.174288837348286.000423338642577.262713688845906"/></g><g id="SPLINE-5"><path class="cls-1" d="M.261678198066875,79.662997919049303c-.000000705826096.092059784879893.000000892898242.209163524295946-.000000033156539.351704368869832-.000000623673259.095997769258247-.000000049902155.174133839376736.000000032989192.235297727565921s-.000000091889888.139300072010883.000000000914952.235297727569559c.000000137802999.14254086578876-.000000701173121.259644612791817-.000000000747605.351704368868013"/></g><g id="SPLINE-6"><path class="cls-1" d="M180.238321959023779,80.837002111922629c.000000705829734-.092059784879893-.000000892898242-.209163524295946.000000033156539-.351704368871651.000000623673259-.095997769258247.000000049902155-.174133839374917-.000000032989192-.235297727565921s.000000091891707-.139300072007245-.000000000916771-.235297727565921c-.000000137799361-.142540865790579.000000701169483-.259644612793636.000000000745786-.351704368869832"/></g><g id="SPLINE-7"><path class="cls-1" d="M.261678198037771,59.662997919049303c-.000000705826096.092059784883531.000000892927346.209163524297765-.000000033127435.351704368869832-.000000623673259.095997769258247-.000000049902155.174133839374917.000000032989192.235297727565921s-.000000091889888.139300072010883.000000000914952.23529772756774c.000000137802999.142540865790579-.000000701173121.259644612793636-.000000000747605.351704368869832"/></g><g id="SPLINE-8"><path class="cls-1" d="M180.238321959023779,60.837002111922629c.000000705829734-.092059784879893-.000000892898242-.209163524295946.000000033156539-.351704368869832.000000623673259-.095997769260066.000000049902155-.174133839376736-.000000032989192-.235297727565921s.000000091891707-.139300072010883-.000000000916771-.23529772756774c-.000000137799361-.14254086578876.000000701187673-.259644612791817.000000000763976-.351704368869832"/></g><g id="SPLINE-9"><path class="cls-1" d="M.261678198037771,39.662997919049303c-.000000705826096.092059784881712.000000892927346.209163524297765-.000000033125616.351704368869832-.000000623675078.095997769258247-.000000049903974.174133839376736.000000032987373.23529772756774s-.000000091889888.139300072009064.000000000914952.235297727565921c.000000137802999.14254086578876-.000000701171302.259644612791817-.000000000747605.351704368869832"/></g><g id="SPLINE-10"><path class="cls-1" d="M180.238321959023779,40.837002111922629c.000000705829734-.092059784879893-.000000892898242-.209163524295946.000000033156539-.351704368869832.000000623673259-.095997769258247.000000049902155-.174133839374917-.000000032989192-.23529772756774s.000000091891707-.139300072009064-.000000000916771-.235297727565921c-.000000137799361-.14254086578876.000000701187673-.259644612791817.000000000763976-.351704368869832"/></g><g id="SPLINE-11"><path class="cls-1" d="M.261678198037771,19.662997919049303c-.000000705826096.092059784881712.000000892927346.209163524297765-.000000033127435.351704368869832-.000000623673259.095997769260066-.000000049902155.174133839376736.000000032989192.235297727565921s-.000000091889888.139300072010883.000000000914952.23529772756774c.000000137802999.142540865790579-.000000701173121.259644612793636-.000000000747605.351704368869832"/></g><g id="SPLINE-12"><path class="cls-1" d="M180.238321959023779,20.837002111922629c.000000705829734-.092059784879893-.000000892898242-.209163524295946.000000033156539-.351704368871651.000000623673259-.095997769258247.000000049902155-.174133839374917-.000000032989192-.235297727565921s.000000091891707-.139300072009064-.000000000916771-.235297727565921c-.000000137799361-.14254086578876.000000701187673-.259644612791817.000000000763976-.351704368869832"/></g><g id="SPLINE-13"><path class="cls-1" d="M5.250000078545781.305738402195857c-.056650188338608-.000000784089934-.100862542751202.000016200361642-.132637054042789.000055764394347-.018042407617031.000022465503207-.050134138416979.000079892268332-.074917996431395.000154041812493-.001404275844834.000004201379852-.00280428365113.00000847364754-.004200023422527.000012816892195-.011568420410185.000035998466046-.022843637249025.000076897133113-.033825650109065.000122629588077-.010982012858221.000045732453145-.019905301971448.000086934152932-.032066428406324.00015140634423-.02432225287339.000128944386233-.048050594681627.000288454011752-.071185013719514.000479940845253-.023134419036069.00019148683532-.043612891173325.000390988559957-.067621477921421.000670348006679-.024008586746277.000279359448541-.047579694597516.000600070145083-.070713301343858.00096339823358s-.043792612119432.000728231783796-.068088298798102.00121800164743c-.048591373355521.000979539727268-.095983784432974.002181729565564-.142177029236336.003612373473516-.023096622402591.000715321953976-.045893451922893.001487627387178-.068390486900171.002316792641068-.022497034979096.000829165252071-.042809403541469.001634084192119-.066591762446478.002657382363395-.0475647178082.002046596340733-.094320053010961.004383199051517-.140265755673681.007013636122792-.02297285133136.001315218534728-.045743295371722.002703826878133-.068311330027427.004165823782387-.022568034653887.001461996904254-.043707359553082.00290838505498-.067096913306159.004605804168023-.046779107506154.003394838226086-.09298809527354.007138128361476-.138626705045681.011233064768021-.091277219544281.008189872813091-.182063198913966.017942355158084-.272637288971964.029510587426557-.04528704502809.005784116136056-.088440911400539.011724144455002-.134289336387155.018537866404586s-.09121892298208.014061855859836-.136111124365925.021747674962171c-.044892201385665.007685819102335-.087837743298223.015523269463301-.133241758781878.024372075962674-.045036791512757.008777238075709-.089607445821457.018022510470473-.133711651105841.027738955115638-.044823444859503.009874897823465-.087402635499529.0198003578098-.133025008328332.031087536352061-.044602221281821.011034788500183-.08866336430583.022564240307474-.132300015184228.034623738867595-.044169505390528.012206759132823-.087680648903188.024893907708247-.130745866859797.038123899375933-.04337261920773.013324427878615-.0862193098219.027179034876099-.128533333936502.041566007634174-.042628599800082.014493930011668-.083685698882618.029141321523639-.126269895692531.045109612108718-.08414427327989.031552554881273-.164471104353652.064623470212609-.245520299307827.101310197427665-.040514835529393.018338944884817-.080028712865897.037070475851579-.119120750761795.056461819976903-.039110876152336.019400688714086-.077799773476727.039461275544454-.116596864452731.060530195552928-.03855549839318.020937722161761-.076539747911738.042512195295785-.113990829602699.064765294193421-.01880141537913.011171633421327-.037484262440557.022525538330228-.055950514859433.034002431992121-.01850593677591.011501557741212-.036814478753513.023137882459196-.054913839532674.034900439408375-.036284852369135.023581089273648-.071790531184888.047705108923765-.106532858842911.072372209011519-.034802835614755.024710060821235-.06884895722942.049970709269473-.102177737955572.075802639887115-.066371454093314.051442109785057-.1308681916762.106005689438462-.191483292801422.161903098722178-.060615101123403.055897409283716-.120115103240096.115795600451747-.174706424713804.175605974634891-.027641189246424.030283748899819-.05472344840382.061249412621692-.081245267856502.092905400259042-.025858747785605.030864556698361-.051184853817176.062385264163822-.075978228036547.094569266526378-.025111250863119.032596634486254-.049675971749821.065873726109203-.073694955244719.099838289854233-.012009491747449.016982281871606-.023882462020993.034136493253754-.035618974266981.051463556466842-.011736512247808.017327063213088-.02400339480846.035853407845934-.034800579656803.052500469417282-.043188739393372.066588246281754-.084427893760221.135608753264023-.123716410598718.207112476002294-.019644258418339.035751861369135-.038802219487479.072124102993257-.057471867248751.109123723930679-.009334823880636.018499810468711-.018547602605395.037156443278946-.027638320878395.055970708703171s-.018587847425806.038928931859118-.026906151095318.056916427032775c-.033273214679866.071949980690988-.064757657517475.146008291392718-.094458782101356.222212275080892-.014850562291031.038101991844087-.029255301888043.076740430995414-.043212813630817.115920373522385-.006978755871387.019589971265304-.013845731351466.039315310741586-.020600871186616.059176614575335s-.013752933627984.040951310720629-.019929944119212.059992347196385c-.012651343573452.038998589168841-.024867481890396.078468183191944-.036663501068688.118457058573767-.011241576408793.038109296985567-.022068156180467.076575876020797-.032517648012799.115534787129945-.010707180121244.039919652102981-.021002886200222.080302145175665-.030886511591234.121150916293118-.004941812696416.020424385558726-.009780633930859.040965336591398-.014516334285872.061623273235455s-.00958653665657.042439607163033-.01389773187293.062325210657946c-.008622390436358.039771206991645-.016872189473361.079973130881626-.024748140589509.120608754585191-.007875951114329.040635623705384-.015605382033755.083028658986223-.022506635868922.123210690233464-.006901253833348.040182031247241-.013457933246173.080808849417735-.019668814340548.121883397787315-.006210881092557.041074548371398-.01227006784211.084072962832579-.017595617529878.124569549354419s-.010337970730689.081494472760824-.015035887923659.122997028995087-.009244677221432.085216319363099-.013150850627426.126024778328429c-.003906173407813.04080845896533-.007531306293458.082170451196362-.010873960338358.124089622413521-.001671327023359.02095958560858-.003272066416685.042058470229676-.004802243996892.063297096274255s-.003063473001021.043758262238043-.004379024312584.064135535953028c-.002631102624946.040754547431789-.005026902239479.082290186204773-.007184956146375.124612715193507-.001079026951629.021161264494367-.002098681045027.042519252141574-.003059058559302.064074656145749s-.001929458241648.04508004607851-.002703684487642.065259156130196c-.001548452490169.040358220099733-.002915528109952.081887352262129-.004096891500012.124596553529045-.00059068169503.021354600632549-.001135053475082.043004223154639-.001633338062675.064949989136949s-.000986637116512.046190590206606-.001357369479592.06672687343962c-.0003707323649.020536283231195-.000707703949956.041550741749234-.001010290110571.06304530232228-.000151293079398.010747280286523-.000294005489195.021614587372824-.000428159439252.032602163711999-.000134153948238.010987576339176-.000270899809038.023164223843196-.00037688239172.033323779853163-.000211965167182.020319112021753-.00039858107084.04126885410551-.000559078160222.062851746561137-.000080248542872.010791446229632-.000153986900841.021741184058556-.000221250413233.032849536952199-.000067263510573.011108352895462-.000136563212436.024161518367691-.000182498431968.033801235687861-.000091870439064.019279434640339-.000169010758327.039750289173753-.000229759549256.061417314978826-.000045561591833.016250269354714-.000081942624092.0331733976127-.000109649621663.050771544752934-.000009235667676.005866049046745-.000020280638637.014058309361644-.00002489788676.017823235939431-.000036937990444.030119412622298-.000055004655223.073580923899499-.000054128682677.130496591198607"/></g><g id="LINE"><line class="cls-1" x1=".261678198066875" y1="5.272055906212699" x2=".261678198066875" y2="19.662997919049303"/></g><g id="LINE-2"><line class="cls-1" x1="180.238321959023779" y1="19.662997919049303" x2="180.238321959023779" y2="5.272055906212699"/></g><g id="SPLINE-14"><path class="cls-1" d="M180.238321959023779,5.272055906212699c.000000423780875-.028557739113239-.000001384782081-.053738744984003-.000010638825188-.075559116599834-.000023135104129-.054550929040488-.000090171233751-.104532017663587-.000284321911749-.155965733581979-.000038830137782-.010286743183315-.000073174698628-.01850990287312-.000128212734126-.029974458762808-.000110076067358-.022929111781195-.000245993731369-.04523728662025-.000408552175941-.066927088457305-.000162558440934-.021689801837056-.000329703907482-.040666006278116-.000566905848245-.063216763297532s-.000508921559231-.044636198404987-.000815792740468-.066258213277251c-.0003068711776-.021622014874083-.000612688512774-.040791900863042-.001025596295221-.063477627147222-.000825815561257-.045371452566542-.001837391162553-.089570944246589-.003039388124307-.132607392086356-.000600998479058-.021518223918974-.00124945373318-.042745677430503-.001945111664099-.063683500162369-.000695657934557-.020937822733686-.00137113074743-.039847839607319-.002227813405625-.061945708475832-.001713365312753-.044195737740665-.003668482560897-.087622167862719-.005867538566235-.13028468595985-.001099528002669-.021331259047656-.002259979457449-.042471534015931-.003481271967757-.063421516426388s-.002433125162497-.040632647074744-.00384608791137-.062279762831167c-.002825925505022-.043294231512846-.005937096069829-.086017580857515-.009334976570244-.128173659029926s-.006931437183084-.082184334281919-.011052987701987-.124770136490042-.008562741481001-.084692147233-.0133247643098-.126321864127021-.00967450977987-.081500131534995-.015248141553457-.123462200921495c-.005573631777224-.0419620693865-.011494961396238-.083485488254155-.017765107455489-.124572805183561s-.012692412630713-.080603186572262-.019856610750139-.12195632919429-.014704794702993-.082293496458078-.022622861306445-.122823460444124c-.007918066599814-.040529963986046-.015826169819775-.078875587903894-.024886407292797-.120361280431098-.017841062996013-.081691992749256-.037264558603056-.161599673761884-.058272301164834-.239747535533752-.010997380064509-.040909761481089-.022427898758906-.081337419354895-.034293022406928-.12128641849813-.011510157717566-.038753854967581-.022811143633589-.075158995281527-.035756726203545-.114913639972656-.012834410921641-.03941324718653-.026106902510946-.078322345158085-.039814564766857-.116728140110354-.013945133767265-.039071136860002-.027944888774073-.07660478642174-.043195214439038-.115665469676969-.015030494942039-.038497630472193-.030514768492139-.076443565609225-.046453518130875-.113842397533517-.016129588231706-.037846617406103-.03200657317575-.073587884466178-.049785249779234-.111864871829312-.034821860052034-.074970478783143-.071525965788169-.147503162505018-.110107582167984-.2176475199376-.020163573510217-.03665893345169-.04083931113928-.072665777637667-.062029550852458-.108026604759289-.010289385256328-.017170224504298-.020700034863694-.034188140343758-.031231976645358-.051054515801297-.010531941785302-.016866375459358-.020468016009545-.032478660670677-.031959599444235-.050145258468547-.022395450854674-.034429669763995-.045309807737794-.068198937653506-.068743408995942-.101314127379737-.023835382231482-.03368296644112-.048207984491455-.066689223202047-.073117814768921-.099025301145957-.025352430526254-.032910628471654-.05126816205302-.065133714329932-.07773025260758-.096661074101576-.026906575498288-.03205692627489-.053505730353208-.062439104922305-.082461201192928-.09406550521453-.028188204199978-.03078835893939-.057007449035154-.060927965054361-.086447222005518-.090405234719583-.029472210007953-.029509748022974-.059571629873972-.058362875137391-.09030203975999-.086568403032288-.061542439663754-.056485969600544-.125615468848991-.110375128388114-.192232973913633-.161750210925675-.066478232180089-.051267675991767-.135859201764106-.100300071446327-.20775232521919-.14683903261357-.072059217676724-.046646479830088-.146647707464581-.090789739357206-.223229226729018-.132278744356881-.019249549241067-.010428686349769-.038646269167657-.020700119832327-.058219941493007-.030833566377623-.019316952933877-.010000540865803-.038825752923003-.019875063186191-.05846758282496-.029593701214253-.039544696759549-.019566435290471-.080767995623319-.039023696381264-.120581786883122-.056980526009283s-.080218602968671-.035358767838261-.121214630864415-.052210185289368c-.040996027899382-.016851417451107-.08397401532784-.033671746121399-.124762412782729-.048906033989624-.081576794906141-.03046857573645-.16524265866974-.05884433560459-.250995920728201-.085159880880383-.042876631028776-.013157772636987-.086275166559062-.025800500054174-.130196058889851-.03793055690403-.043920892327151-.012130056851674-.089710063741222-.02407977157236-.133329755273735-.034854821762565s-.087731987674488-.021069756499855-.132336993901845-.030886557055055c-.02230500989026-.004908951976176-.045067799597746-.009769618578503-.067784787286655-.014471788705123-.022711881538271-.004701113210103-.045401952374959-.009248519429093-.067508861968236-.01354581700798-.044218789327715-.008595561292168-.088927821303514-.016748423966419-.134127563258517-.024459118983941-.045199741958641-.007710695015703-.092706592884497-.015247751831339-.137071148939867-.021807655524753-.044364556059008-.006559903693415-.08925719816034-.012724601223454-.134678421298304-.018493213678084-.045421223141602-.005768612452812-.093485933197371-.011367630531822-.137849153594289-.016119550698932-.044363220393279-.004751920167109-.089353086936171-.009159651954178-.134970058712497-.013221377615992-.022808485886344-.002030862829997-.045773733978422-.003975266516136-.06889573625449-.005833321169121s-.047774384416698-.003728564686753-.06983623396809-.00531549205698c-.044123699102784-.003173854738634-.089078069890093-.006061626587325-.134863529641734-.008660074216095-.02289272987764-.001299223815295-.045993216455827-.002526190541175-.069301445339079-.00368102306129-.02330822888689-.001154832520115-.048850259321625-.002323877675735-.070547876523051-.003248622659157-.043395234402851-.001849489966844-.088053988976753-.003482233665636-.133976678444014-.004892005032161-.034442017098627-.001057328525349-.069594959808455-.001989378521102-.105458746791555-.002797435068715-.011954595662246-.000269352181931-.025151094017929-.00054819183606-.036100729368627-.000766972189012-.021899270708673-.000437560702267-.04434957090416-.000836244083985-.067350948476815-.001194750770082-.011500688782689-.000179253343958-.02313914563274-.000348471819962-.034915370681119-.000507609751367s-.024964984535472-.000322900312312-.03574197755006-.000447232343504c-.021553986029176-.000248664064202-.04384143067-.000468453370559-.066862365179986-.000657839018459-.011510467254993-.000094692823041-.023204305925901-.000181803057785-.035081515576167-.000261303270236-.011877209646627-.000079500212451-.025998785411502-.000162226997418-.036181740139-.000215785117689-.020365909454995-.000107116238723-.042066142719705-.000197574967387-.065100719359179-.000268981084446-.020126707193413-.000062391854954-.041272125956311-.000110209501145-.063436251195526-.00014435887897-.003202231837349-.000004933839591-.007680173988774-.000011280955732-.009670488718257-.000013970062355-.031532404078462-.000042603305701-.077615599453566-.000063921765104-.138249588268081-.00006306807154"/></g><g id="LINE-3"><line class="cls-1" x1="175.250000078543962" y1=".305738402195857" x2="5.250000078545781" y2=".305738402195857"/></g><g id="LINE-4"><line class="cls-1" x1=".261678198066875" y1="20.837002111922629" x2=".261678198066875" y2="39.662997919049303"/></g><g id="LINE-5"><line class="cls-1" x1="180.238321959023779" y1="39.662997919049303" x2="180.238321959023779" y2="20.837002111922629"/></g><g id="LINE-6"><line class="cls-1" x1=".261678198066875" y1="40.837002111922629" x2=".261678198066875" y2="59.662997919049303"/></g><g id="LINE-7"><line class="cls-1" x1="180.238321959023779" y1="59.662997919049303" x2="180.238321959023779" y2="40.837002111922629"/></g><g id="LINE-8"><line class="cls-1" x1=".261678198066875" y1="60.837002111922629" x2=".261678198066875" y2="79.662997919049303"/></g><g id="LINE-9"><line class="cls-1" x1="180.238321959023779" y1="79.662997919049303" x2="180.238321959023779" y2="60.837002111922629"/></g><g id="LINE-10"><line class="cls-1" x1=".261678198066875" y1="80.837002111922629" x2=".261678198066875" y2="95.227944124757414"/></g><g id="SPLINE-15"><path class="cls-1" d="M.261678198066875,95.227944124757414c-.000000423780875.028557737332449.0000013847839.053738742315545.000010638823369.075559113933195.00002313510231.054550929042307.000090171224656.104532016988742.00028432190993.155965734667916.000038830135964.01028674353438.000073174704085.018509904612074.000128212737764.029974460345329.000110076067358.02292911146651.00024599372955.04523728615095.000408552172303.066927087988006.000162558440934.021689801837056.000329703912939.040666006767424.000566905851883.063216763765013.000237201940763.022550756999408.00050892156105.044636198377702.000815792740468.066258213249967s.000612688510955.040791900706608.001025596295221.063477627176326c.000825815570352.045371452937616.001837391177105.089570944803199.003039388140678.132607392642967.000600998480877.021518223918974.001249453731361.042745677383209.00194511166228.063683500022307s.001371130731059.039847839134382.002227813391073.061945708059284c.00171336531821.044195737849805.003668482568173.087622168026428.005867538573511.130284686123559.001099528004488.021331259047656.002259979459268.042471534001379.003481271969576.063421516384551.00122129250849.020949982383172.002433125177049.040632647302118.003846087904094.062279762709295.002825925455909.043294230810716.005937095989793.086017579807958.009334976484752.128173657982188s.006931437259482.082184335233251.011052987785661.124770137539599c.004121550527998.042585802304529.008562741497371.084692147374881.013324764326171.126321864268903s.009674509688921.081500130840141.015248141538905.123462200777794c.005573631848165.041962069937654.011494961516291.083485489079976.01776510757918.124572806005744.006270146064708.041087316927587.012692412508841.080603185770087.019856610624629.121956328370288s.014704794697536.082293496430793.022622861299169.122823460416839.015826169850698.078875588033043.024886407300073.120361280460202c.017841062974185.081691992656488.037264558581228.161599673669116.058272301164834.239747535533752.010997380039043.040909761379226.022427898711612.081337419182091.034293022341444.121286418279851.011510157732118.038753855016694.02281114374091.075158995630773.035756726270847.114913640190935.012834410899814.039413247124685.026106902489119.07832234509624.039814564766857.116728140110354.0139451337418.0390711367927.027944888763159.076604786399912.043195214437219.115665469676969.01503049495841.03849763051403.030514768512148.076443565651061.046453518129056.113842397533517.016129588253534.037846617449759.032006573135732.07358788437341.049785249782872.111864871827493.034821860072043.074970478830437.071525965811816.147503162550493.110107582166165.2176475199376.020163573535683.036658933500803.040839311188392.072665777723159.062029550916122.10802660486479.010289385247233.017170224493384.020700034847323.034188140318292.031231976621712.051054515757642s.020468015967708.032478660607012.031959599406036.05014525840852c.022395450854674.034429669763995.045309807737794.068198937655325.068743408994123.101314127379737.023835382231482.033682966442939.048207984493274.066689223203866.073117814768921.099025301144138.025352430528073.032910628475292.05126816205302.065133714331751.077730252605761.096661074103395.026906575500107.032056926276709.053505730331381.062439104896839.082461201196566.094065505212711.028188204210892.030788358953941.057007449044249.060927965065275.086447222003699.090405234721402.029472210013409.029509748026612.05957162987761.05836287513921.090302039761809.086568403032288.061542439640107.056485969580535.125615468801698.110375128351734.192232973913633.161750210923856.06647823216008.051267675977215.135859201787753.100300071460879.207752325217371.146839032611751.072059217789501.046646479906485.146647707633747.090789739451793.223229226730837.132278744360519.019249549224696.010428686342493.038646269151286.020700119823232.058219941493007.030833566379442.01931695285748.010000540825786.03882575278476.019875063115251.058467582637604.029593701121485.039544696755911.01956643529229.080767995917995.039023696521326.120581787070478.056980526100233s.080218602803143.035358767769139.121214630698887.052210185222066.083974015484273.033671746185064.124762412946438.048906034056927c.081576794924331.030468575743726.165242658695206.058844335613685.250995920750938.085159880887659.042876631026957.013157772638806.086275166555424.025800500052355.130196058882575.037930556900392.043920892325332.012130056849855.089710063484745.024079771508696.133329755257364.034854821758927.043619691774438.010775050250231.087731988043743.02106975658171.1323369942711.03088655713691.022305009844786.004908951965263.045067799383105.009769618527571.067784786919219.014471788623268.022711881474606.00470111319737.045401952264001.009248519407265.067508861966417.01354581700798.044218789455044.008595561315815.088927821492689.01674842400098.13412756344951.024459119016683.045199741958641.007710695013884.09270659268077.015247751796778.137071148750692.021807655492012s.089257198176711.012724601225273.134678421316494.018493213679903.093485933170086.011367630528184.137849153572461.016119550697113c.044363220404193.004751920168928.089353086950723.009159651955997.134970058727049.013221377615992.022808485888163.002030862829997.045773733978422.003975266517955.068895736252671.005833321169121s.047774384403965.003728564686753.069836233957176.00531549205698c.044123699104603.003173854738634.089078069891912.006061626587325.134863529647191.008660074216095.02289272987764.001299223815295.045993216454008.002526190541175.069301445339079.00368102306129.023308228883252.001154832520115.048850259336177.002323877675735.070547876517594.003248622659157.043395234364652.001849489965025.088053988920365.003482233663817.133976678387626.004892005030342.034442017100446.001057328525349.069594959819369.001989378522921.105458746824297.002797435068715.011954595669522.00026935218375.025151094045214.000548191837879.036100729394093.000766972190831.021899270697759.000437560702267.044349570889608.000836244083985.067350948460444.001194750770082.011500688786327.000179253343958.023139145636378.000348471819962.034915370686576.000507609751367s.024964984542748.000322900312312.035741977560974.000447232343504c.021553986036452.000248664064202.043841430677276.000468453370559.066862365189081.00065783901664.011510467254993.00009469282486.023204305925901.000181803059604.035081515572529.000261303272055s.025998785435149.000162226997418.036181740133543.000215785117689c.020365909394968.000107116238723.042066142628755.000197574967387.065100719270049.000268981082627.020126707167947.000062391856773.041272125927208.000110209502964.063436251177336.000144358880789.00320223187191.000004933839591.007680174074267.000011280955732.009670488823758.000013970062355.031532404093014.000042603305701.077615599471756.000063921765104.138249588268081.00006306807154"/></g><g id="LINE-11"><line class="cls-1" x1="5.250000078545781" y1="100.194261628776076" x2="175.250000078543962" y2="100.194261628776076"/></g><g id="SPLINE-16"><path class="cls-1" d="M175.250000078543962,100.194261628776076c.056650188340427.000000784089934.100862542753021-.000016200361642.132637054044608-.000055764394347.018042407587927-.000022465505026.050134138422436-.000079892268332.074917996407748-.000154041812493.001404275884852-.000004201379852.002804283725709-.00000847364754.004200023537123-.000012816892195.011568420406547-.000035998467865.022843637241749-.000076897133113.0338256500836-.000122629588077.010982012845488-.000045732454964.019905301905965-.000086934152932.032066428339022-.00015140634423.024322252869752-.000128944386233.04805059467617-.000288454011752.071185013715876-.000479940845253.023134419036069-.00019148683532.043612891120574-.000390988558138.067621477926878-.000670348006679.024008586802665-.000279359448541.047579694684828-.000600070146902.07071330142935-.000963398235399.023133606748161-.000363328086678.043792612028483-.000728231781977.068088298710791-.001218001645611.048591373360978-.000979539727268.095983784442069-.002181729565564.14217702924725-.003612373473516.023096622400772-.000715321953976.045893451919255-.001487627387178.068390486896533-.002316792641068s.042809403570573-.001634084193938.066591762439202-.002657382363395c.047564717737259-.002046596338914.094320052907278-.00438319904606.140265755569999-.007013636117335.022972851329541-.001315218534728.045743295380817-.002703826878133.068311330051074-.004165823782387.022568034673895-.001461996906073.043707359625841-.002908385058618.067096913386195-.00460580417348.046779107520706-.003394838227905.092988095293549-.007138128363295.13862670506569-.01123306476984.091277219544281-.008189872813091.182063198706601-.017942355134437.272637288766418-.029510587401091.04528704502809-.005784116134237.088440911844373-.011724144516847.134289336572692-.018537866428233.045848424731957-.006813721911385.091218922600092-.014061855796172.136111123985756-.021747674896687s.087837743642012-.01552326951969.133241759162047-.024372076028158c.045036791532766-.008777238079347.089607445839647-.018022510472292.133711651105841-.027738955115638.044823444881331-.009874897828922.087402635399485-.019800357784334.133025008330151-.03108753635388.044602221300011-.011034788503821.08866336432402-.022564240311112.132300015182409-.034623738867595.044169505410537-.01220675913828.087680648925016-.024893907713704.130745866859797-.038123899375933.043372619228649-.013324427884072.086219309844637-.027179034883375.128533333937412-.041566007632355.04262859982191-.014493930018944.083685698809859-.029141321494535.126269895692531-.045109612110537.08414427331445-.031552554892187.164471104020777-.064623470059814.245520299307827-.101310197425846.040514835676731-.01833894495212.08002871294957-.037070475891596.119120750761795-.056461819976903.039110876106861-.019400688694077.077799773371225-.039461275488065.116596864452731-.060530195554747.038555498405913-.020937722169037.07653974792629-.042512195306699.113990829602699-.06476529419524.018801415386406-.011171633423146.037484262447833-.022525538332047.055950514859433-.034002431990302.018505936783185-.011501557746669.036814478760789-.023137882464653.054913839532674-.034900439408375.036284852398239-.023581089291838.071790531212173-.047705108943774.106532858841092-.072372209011519.034802835649316-.024710060843063.068848957263981-.049970709294939.10217773795739-.075802639885296.066371453878673-.05144210961771.130868191903573-.106005689645826.191483292801422-.161903098720359s.12011510328739-.115795600506317.174706424713804-.17560597463671c.027641189240967-.030283748892543.054723448396544-.061249412614416.081245267854683-.092905400259042.025858747758321-.03086455666562.051184853771701-.062385264103796.075978227974701-.094569266442704.025111250863119-.032596634486254.049675971757097-.06587372611466.073694955262908-.099838289874242.012009491754725-.016982281878882.023882462035544-.034136493270125.035618974288809-.051463556494127s.024003394857573-.035853407918694.03480057968045-.052500469453662c.043188739302423-.066588246139872.084427893634711-.135608753045744.123716410478664-.207112475782196.019644258420158-.035751861367316.03880221950385-.072124103007809.057471867283311-.109123723981611.00933482389155-.018499810486901.018547602630861-.037156443320782.027638320916594-.055970708774112s.018587847480376-.038928931975533.026906151142612-.056916427131c.033273214648943-.071949980618228.06475765747382-.146008291283579.094458782059519-.222212274969934.01485056229285-.038101991844087.029255301895319-.07674043100269.043212813645368-.11592037354967.006978755875025-.019589971274399.013845731355104-.039315310761594.02060087119753-.059176614609896s.01375293365345-.040951310797027.019929944137402-.059992347245498c.012651343567995-.03899858915247.02486748188312-.078468183177392.036663501068688-.118457058575586.011241576386965-.038109296916446.022068156144087-.076575875893468.032517647967325-.115534786960779.010707180121244-.039919652102981.021002886205679-.080302145188398.030886511605786-.121150916333136.004941812698235-.020424385573278.009780633936316-.04096533662414.014516334296786-.061623273288205s.00958653669295-.042439607324923.013897731892939-.062325210732524c.00862239039634-.039771206817022.016872189418791-.079973130616054.024748140534939-.120608754319619s.015605382217473-.083028660010314.022506635919854-.123210690499036c.006901253706019-.040182030486903.013457933069731-.08080884827541.019668814169563-.12188339664317s.012270068204089-.08407296540463.017595617704501-.124569550498563.010337970470573-.081494470608959.015035887678096-.122997026839585.00924467747609-.085216321642292.01315085087117-.126024780483931c.003906173398718-.040808458841639.007531306277087-.082170451010825.010873960323806-.124089622227984.001671327023359-.020959585610399.003272066420323-.042058470246047.004802244002349-.063297096321548s.00306347300284-.043758262278061.004379024321679-.06413553609309c.002631102637679-.040754547628239.005026902257669-.082290186501268.007184956160927-.124612715490002.001079026951629-.021161264494367.002098681045027-.042519252116108.003059058555664-.06407465607117s.001929458248924-.045080046287694.002703684476728-.06525915590646c.001548452459247-.040358219235713.002915528071753-.08188735096337.004096891465451-.124596552228468.000590681698668-.021354600634368.001135053480539-.04300422326196.001633338077227-.064949989462548.00049828459305-.021945766198769.00098663715471-.046190592134735.001357369499601-.066726874414599.000370732348529-.020536282278044.000707703929947-.041550740319508.001010290092381-.063045300892554.000151293079398-.010747280286523.000294005491014-.021614587489239.000428159444709-.032602164066702s.000270899829047-.023164225482105.000376882406272-.033323780928185c.000211965154449-.02031911089216.000398581054469-.041268852408393.000559078143851-.062851744865839.000080248548329-.010791446227813.000153986904479-.021741184196799.00022125041869-.032849537374204s.000136563230626-.02416152171827.000182498439244-.033801236961153c.000091870420874-.019279430485767.000169010738318-.039750282938257.000229759534704-.061417308741511.000045561595471-.016250269351076.000081942631368-.033173398776853.000109649634396-.050771548258126.000009235667676-.005866049825272.000020280644094-.01405831367083.000024897890398-.017823238671554.000036937977711-.030119400007607.000055004657042-.073580911252066.000054128682677-.130496591200426"/></g><g id="LINE-12"><line class="cls-1" x1="180.238321959023779" y1="95.227944124757414" x2="180.238321959023779" y2="80.837002111922629"/></g><g id="LINE-13"><line class="cls-1" x1="180.250000078544872" y1="5.250000015485057" x2="180.250000078544872" y2="19.704704303980179"/></g><g id="LINE-14"><line class="cls-1" x1="180.250000078544872" y1="19.704704303980179" x2="180.250000078544872" y2="20.795295726991753"/></g><g id="LINE-15"><line class="cls-1" x1="180.250000078544872" y1="20.795295726991753" x2="180.250000078544872" y2="39.704704303980179"/></g><g id="LINE-16"><line class="cls-1" x1="180.250000078544872" y1="39.704704303980179" x2="180.250000078544872" y2="40.795295726991753"/></g><g id="LINE-17"><line class="cls-1" x1="180.250000078544872" y1="40.795295726991753" x2="180.250000078544872" y2="59.704704303980179"/></g><g id="LINE-18"><line class="cls-1" x1="180.250000078544872" y1="59.704704303980179" x2="180.250000078544872" y2="60.795295726991753"/></g><g id="LINE-19"><line class="cls-1" x1="180.250000078544872" y1="60.795295726991753" x2="180.250000078544872" y2="79.704704303980179"/></g><g id="LINE-20"><line class="cls-1" x1="180.250000078544872" y1="79.704704303980179" x2="180.250000078544872" y2="80.795295726991753"/></g><g id="LINE-21"><line class="cls-1" x1="180.250000078544872" y1="80.795295726991753" x2="180.250000078544872" y2="95.250000015485057"/></g><g id="LINE-22"><line class="cls-1" x1="175.250000078543962" y1="100.250000015485057" x2="5.250000078545781" y2="100.250000015485057"/></g><g id="LINE-23"><line class="cls-1" x1=".250000078545781" y1="95.250000015485057" x2=".250000078545781" y2="80.795295726991753"/></g><g id="LINE-24"><line class="cls-1" x1=".250000078545781" y1="80.795295726991753" x2=".250000078545781" y2="79.704704303980179"/></g><g id="LINE-25"><line class="cls-1" x1=".250000078545781" y1="79.704704303980179" x2=".250000078545781" y2="60.795295726991753"/></g><g id="LINE-26"><line class="cls-1" x1=".250000078545781" y1="60.795295726991753" x2=".250000078545781" y2="59.704704303980179"/></g><g id="LINE-27"><line class="cls-1" x1=".250000078545781" y1="59.704704303980179" x2=".250000078545781" y2="40.795295726991753"/></g><g id="LINE-28"><line class="cls-1" x1=".250000078545781" y1="40.795295726991753" x2=".250000078545781" y2="39.704704303980179"/></g><g id="LINE-29"><line class="cls-1" x1=".250000078545781" y1="39.704704303980179" x2=".250000078545781" y2="20.795295726991753"/></g><g id="LINE-30"><line class="cls-1" x1=".250000078545781" y1="20.795295726991753" x2=".250000078545781" y2="19.704704303980179"/></g><g id="LINE-31"><line class="cls-1" x1=".250000078545781" y1="19.704704303980179" x2=".250000078545781" y2="5.250000015485057"/></g><g id="LINE-32"><line class="cls-1" x1="5.250000078545781" y1=".250000015485057" x2="175.250000078543962" y2=".250000015485057"/></g><g id="LINE-33"><line class="cls-1" x1=".261678198065056" y1="79.662997919049303" x2="180.238321959020141" y2="79.662997919049303"/></g><g id="LINE-34"><line class="cls-1" x1="180.238321959023779" y1="80.837002111922629" x2=".261678198066875" y2="80.837002111922629"/></g><g id="LINE-35"><line class="cls-1" x1=".261678198025038" y1="59.662997919049303" x2="180.238321959045606" y2="59.662997919049303"/></g><g id="LINE-36"><line class="cls-1" x1="180.238321959023779" y1="60.837002111922629" x2=".261678198066875" y2="60.837002111922629"/></g><g id="LINE-37"><line class="cls-1" x1=".261678198025038" y1="39.662997919049303" x2="180.238321959045606" y2="39.662997919049303"/></g><g id="LINE-38"><line class="cls-1" x1="180.238321959023779" y1="40.837002111922629" x2=".261678198066875" y2="40.837002111922629"/></g><g id="LINE-39"><line class="cls-1" x1=".261678198025038" y1="19.662997919049303" x2="180.238321959045606" y2="19.662997919049303"/></g><g id="LINE-40"><line class="cls-1" x1="180.238321959023779" y1="20.837002111922629" x2=".261678198066875" y2="20.837002111922629"/></g><g id="LINE-41"><line class="cls-1" x1="5.250000078545781" y1="100.250000015485057" x2="5.250000078545781" y2="100.194261628776076"/></g><g id="LINE-42"><line class="cls-1" x1="175.250000078543962" y1="100.194261628776076" x2="175.250000078543962" y2="100.250000015485057"/></g><g id="LINE-43"><line class="cls-1" x1="180.238321959023779" y1="95.227944124757414" x2="180.250000078544872" y2="95.250000015485057"/></g><g id="LINE-44"><line class="cls-1" x1=".250000078545781" y1="95.250000015485057" x2=".261678198066875" y2="95.227944124757414"/></g><g id="LINE-45"><line class="cls-1" x1="180.238321959023779" y1="80.837002111922629" x2="180.250000078544872" y2="80.795295726991753"/></g><g id="LINE-46"><line class="cls-1" x1=".250000078545781" y1="80.795295726991753" x2=".261678198066875" y2="80.837002111922629"/></g><g id="LINE-47"><line class="cls-1" x1="180.238321959020141" y1="79.662997919049303" x2="180.250000078544872" y2="79.704704303980179"/></g><g id="LINE-48"><line class="cls-1" x1=".250000078545781" y1="79.704704303980179" x2=".261678198065056" y2="79.662997919049303"/></g><g id="LINE-49"><line class="cls-1" x1="180.238321959023779" y1="60.837002111922629" x2="180.250000078544872" y2="60.795295726991753"/></g><g id="LINE-50"><line class="cls-1" x1=".250000078545781" y1="60.795295726991753" x2=".261678198066875" y2="60.837002111922629"/></g><g id="LINE-51"><line class="cls-1" x1="180.238321959045606" y1="59.662997919049303" x2="180.250000078544872" y2="59.704704303980179"/></g><g id="LINE-52"><line class="cls-1" x1=".250000078545781" y1="59.704704303980179" x2=".261678198025038" y2="59.662997919049303"/></g><g id="LINE-53"><line class="cls-1" x1="180.238321959023779" y1="40.837002111922629" x2="180.250000078544872" y2="40.795295726991753"/></g><g id="LINE-54"><line class="cls-1" x1=".250000078545781" y1="40.795295726991753" x2=".261678198066875" y2="40.837002111922629"/></g><g id="LINE-55"><line class="cls-1" x1="180.238321959045606" y1="39.662997919049303" x2="180.250000078544872" y2="39.704704303980179"/></g><g id="LINE-56"><line class="cls-1" x1=".250000078545781" y1="39.704704303980179" x2=".261678198025038" y2="39.662997919049303"/></g><g id="LINE-57"><line class="cls-1" x1="180.238321959023779" y1="20.837002111922629" x2="180.250000078544872" y2="20.795295726991753"/></g><g id="LINE-58"><line class="cls-1" x1=".250000078545781" y1="20.795295726991753" x2=".261678198066875" y2="20.837002111922629"/></g><g id="LINE-59"><line class="cls-1" x1="180.238321959045606" y1="19.662997919049303" x2="180.250000078544872" y2="19.704704303980179"/></g><g id="LINE-60"><line class="cls-1" x1=".250000078545781" y1="19.704704303980179" x2=".261678198025038" y2="19.662997919049303"/></g><g id="LINE-61"><line class="cls-1" x1="180.238321959023779" y1="5.272055906212699" x2="180.250000078544872" y2="5.250000015485057"/></g><g id="LINE-62"><line class="cls-1" x1=".250000078545781" y1="5.250000015485057" x2=".261678198066875" y2="5.272055906212699"/></g><g id="LINE-63"><line class="cls-1" x1="175.250000078543962" y1=".305738402195857" x2="175.250000078543962" y2=".250000015485057"/></g><g id="LINE-64"><line class="cls-1" x1="5.250000078545781" y1=".250000015485057" x2="5.250000078545781" y2=".305738402195857"/></g></svg>